<?xml version="1.0" standalone="no"?>
<!DOCTYPE svg PUBLIC "-//W3C//DTD SVG 20010904//EN"
 "http://www.w3.org/TR/2001/REC-SVG-20010904/DTD/svg10.dtd">
<svg version="1.0" xmlns="http://www.w3.org/2000/svg"
 width="640.000000pt" height="532.000000pt" viewBox="0 0 640.000000 532.000000"
 preserveAspectRatio="xMidYMid meet">

<g transform="translate(0.000000,532.000000) scale(0.100000,-0.100000)"
fill="#000000" stroke="none">
<path d="M2800 4655 c-300 -70 -282 -61 -331 -157 -28 -55 -28 -73 0 -45 10
10 11 6 5 -18 -4 -16 -11 -40 -15 -53 -14 -37 -11 -38 22 -6 l32 29 -6 -25
c-8 -34 -22 -90 -32 -120 -7 -23 -5 -23 30 10 21 19 36 28 33 20 -5 -16 -23
-73 -40 -128 -13 -44 3 -63 31 -38 11 10 25 15 31 11 6 -4 20 1 31 11 14 12
23 14 30 7 17 -17 31 -152 23 -223 l-7 -65 -10 40 c-5 22 -11 65 -14 95 -6 67
-16 80 -42 56 -11 -10 -27 -16 -35 -13 -10 4 -20 -2 -26 -13 -15 -28 -37 -25
-44 5 -6 24 1 64 26 143 14 47 6 48 -32 5 -29 -32 -32 -34 -26 -13 54 174 54
171 10 126 -31 -33 -36 -35 -30 -15 23 77 37 132 33 135 -10 10 -66 -68 -174
-241 l-118 -190 -210 -103 c-116 -57 -289 -143 -385 -191 l-175 -88 -115 8
c-63 4 -163 11 -223 15 -79 5 -107 4 -107 -5 0 -19 98 -185 122 -206 51 -46
478 -479 478 -486 0 -4 -34 -33 -77 -64 l-76 -55 -166 172 c-271 281 -259 266
-361 463 -51 99 -97 186 -102 193 -11 13 -238 18 -238 5 0 -14 703 -1648 714
-1660 6 -7 202 -59 435 -115 l424 -103 25 -37 c26 -40 42 -41 42 -3 0 28 20
75 31 75 4 0 20 -11 35 -24 25 -20 27 -29 25 -77 -3 -92 -20 -113 -68 -82 -24
16 -26 16 -39 -2 -21 -28 -29 -86 -14 -95 8 -5 57 -11 109 -14 53 -4 110 -11
126 -17 17 -6 113 -34 215 -63 102 -29 195 -56 206 -60 18 -5 47 15 152 103
110 92 140 112 189 125 32 9 90 28 128 43 39 14 88 25 111 24 22 0 166 26 318
59 153 33 280 60 283 60 13 0 -12 -58 -57 -137 -58 -101 -63 -127 -24 -117
l26 7 -29 -54 c-38 -74 -39 -79 -5 -40 23 27 33 32 48 26 28 -12 29 -12 98
-14 60 -1 66 -3 78 -28 8 -17 25 -30 46 -35 17 -5 32 -15 32 -23 0 -27 -19
-64 -38 -74 -29 -15 -72 21 -72 60 0 29 0 29 -30 14 -16 -8 -37 -15 -48 -15
-10 0 -23 -5 -30 -12 -7 -7 -33 -12 -58 -13 -69 0 -85 -28 -111 -187 -5 -34
-3 -38 22 -48 17 -7 39 -7 60 -1 31 8 33 7 38 -18 4 -16 -2 -39 -14 -60 -16
-26 -17 -36 -8 -48 11 -12 14 -12 21 1 13 24 43 19 56 -8 6 -14 27 -30 46 -37
34 -12 36 -16 36 -56 l0 -43 -42 17 c-24 9 -50 22 -59 30 -8 7 -23 13 -33 13
-9 0 -28 12 -41 26 -14 15 -32 24 -44 22 -19 -3 -19 -4 5 -76 13 -40 30 -82
37 -92 13 -19 14 -19 25 5 12 26 36 33 47 14 7 -11 52 -32 70 -33 6 -1 18 -9
28 -19 9 -9 26 -17 37 -17 23 0 60 -29 60 -47 0 -18 -14 -16 -58 6 -20 10 -62
22 -92 26 -30 4 -63 11 -72 17 -10 5 -18 5 -18 1 0 -30 45 -161 65 -191 14
-20 25 -43 25 -50 0 -16 70 -46 81 -35 5 5 29 48 54 97 35 68 42 92 35 106
-14 26 -13 27 14 34 13 3 33 20 44 38 19 30 20 34 5 59 -12 21 -29 29 -79 39
l-63 13 -7 43 c-10 70 34 115 73 72 12 -14 25 -18 45 -14 32 6 53 -21 44 -58
-10 -41 8 -48 42 -16 23 21 32 38 33 62 0 18 2 71 4 118 5 112 -4 156 -31 152
-15 -2 -29 9 -49 38 -15 22 -32 40 -36 40 -12 0 -11 81 0 99 8 12 14 12 41 -1
18 -9 37 -26 43 -38 20 -38 37 -36 37 4 0 24 -5 36 -14 36 -7 0 -19 7 -27 16
-10 13 -10 25 6 70 10 30 24 54 32 54 10 0 13 22 13 95 0 85 -2 95 -21 105
-25 14 -23 15 -43 -34 -9 -22 -19 -36 -23 -33 -3 4 0 15 7 24 8 10 1 6 -14 -8
-25 -24 -32 -25 -67 -16 -28 7 -39 15 -39 28 0 10 -9 42 -20 70 -12 29 -18 59
-15 67 9 25 23 2 38 -63 l14 -60 48 0 c48 0 49 0 92 63 47 69 56 98 20 64 -28
-26 -45 -27 -75 -6 -17 12 -20 19 -12 29 14 17 -3 29 -30 20 -25 -8 -40 27
-39 88 l1 42 15 -36 c11 -27 26 -41 56 -55 63 -26 105 -33 118 -18 6 7 17 10
24 8 7 -3 152 24 322 61 169 36 380 82 468 100 88 19 194 41 236 51 l77 17 6
55 c4 30 20 274 36 541 17 267 33 523 37 567 5 75 4 82 -13 87 -11 3 -131 31
-269 62 -137 31 -260 61 -271 67 -23 11 -12 14 -378 -97 -120 -37 -222 -63
-227 -58 -9 9 73 178 101 207 10 10 62 30 116 45 55 15 99 32 99 37 0 5 -15
51 -34 103 l-34 93 -46 -5 c-51 -5 -371 -51 -499 -70 l-84 -13 -22 30 c-25 34
-304 429 -345 488 -14 21 -31 38 -37 38 -7 0 -14 8 -16 18 -6 21 -119 170
-130 171 -3 1 -9 -7 -11 -16 -3 -10 -5 -3 -6 15 -2 52 -51 93 -212 176 -80 42
-148 76 -150 75 -2 0 -128 -29 -279 -64z m650 -251 c13 -34 13 -47 -2 -37 -7
4 -23 6 -35 4 -18 -2 -23 2 -23 22 0 29 7 37 32 37 11 0 23 -11 28 -26z m-498
-64 c29 -30 30 -33 26 -105 -5 -112 -46 -155 -119 -124 -45 18 -59 45 -59 117
0 66 17 114 47 131 34 20 73 12 105 -19z m316 -27 c20 -25 23 -37 20 -105 -4
-91 -19 -112 -84 -123 -37 -6 -44 -3 -63 21 -17 22 -21 40 -21 105 0 69 3 81
27 109 23 28 31 31 62 26 22 -3 45 -16 59 -33z m335 -79 c5 -28 0 -30 -25 -7
-10 9 -18 27 -18 41 0 24 1 24 19 8 10 -9 21 -28 24 -42z m-36 -51 c-3 -10 -5
-4 -5 12 0 17 2 24 5 18 2 -7 2 -21 0 -30z m13 -73 c0 -18 -2 -17 -25 4 -14
13 -25 34 -25 47 l1 24 24 -28 c14 -15 25 -37 25 -47z m-30 -38 c0 -15 -2 -15
-10 -2 -13 20 -13 33 0 25 6 -3 10 -14 10 -23z m-17 -41 c12 -1 17 -9 17 -30
0 -33 -14 -48 -33 -34 -7 5 -28 9 -47 9 -30 -1 -36 -5 -43 -31 -5 -16 -15 -43
-22 -60 -8 -16 -17 -44 -20 -62 -3 -17 -13 -37 -21 -44 -28 -23 -14 55 27 149
11 23 19 49 19 58 0 38 19 52 62 49 24 -2 51 -4 61 -4z m-378 -411 c-3 -5 -12
-10 -18 -10 -7 0 -6 4 3 10 19 12 23 12 15 0z m-333 -95 c6 -42 -14 -184 -27
-201 -13 -17 -16 -17 -25 -4 -5 8 -10 24 -10 36 0 11 -9 29 -20 39 -27 24 -25
51 5 81 14 14 32 39 41 56 16 31 31 28 36 -7z m318 -23 c0 -9 7 -38 16 -63 16
-44 16 -47 -3 -75 -11 -16 -28 -42 -38 -59 -18 -29 -18 -29 -28 -7 -11 25 6
180 23 212 12 23 30 18 30 -8z m1234 -19 c-27 -36 -42 -39 -46 -11 -2 18 4 26
27 34 39 15 43 10 19 -23z m-1664 -102 c0 -25 -10 -51 -20 -51 -13 0 -18 36
-8 54 12 22 28 20 28 -3z m498 -57 c3 -25 -13 -48 -27 -40 -12 8 -15 49 -4 60
11 11 28 1 31 -20z m-519 -179 c11 -30 10 -39 -6 -65 -22 -38 -30 -38 -35 2
-5 32 10 98 22 98 3 0 12 -16 19 -35z m491 -69 c0 -19 -7 -39 -15 -46 -23 -19
-37 27 -18 63 17 34 33 26 33 -17z m-428 -148 c0 -82 -41 -407 -54 -431 -15
-28 -32 -6 -30 40 3 72 44 388 53 412 12 29 32 16 31 -21z m318 -35 c0 -60
-41 -386 -52 -415 -12 -31 -23 -36 -32 -12 -8 20 42 432 55 457 15 26 29 11
29 -30z m-423 -75 c-6 -91 -23 -152 -39 -142 -13 8 -3 176 12 205 23 43 33 20
27 -63z m505 -20 c-3 -69 -23 -157 -40 -170 -13 -11 -14 -1 -10 87 4 102 20
157 41 136 5 -5 10 -30 9 -53z m-552 -414 c0 -29 -24 -64 -36 -51 -10 10 -7
63 6 86 10 19 14 21 21 10 5 -8 9 -28 9 -45z m1499 -25 c46 -22 81 -42 78 -45
-7 -7 -157 57 -189 81 l-23 17 25 -7 c14 -3 63 -24 109 -46z m-1009 -21 c-1
-24 -7 -54 -14 -67 l-13 -24 -7 35 c-6 36 9 98 25 98 5 0 9 -19 9 -42z m1085
-48 c66 -31 55 -36 -40 -19 -53 10 -62 15 -58 30 7 25 27 23 98 -11z m151 -31
c3 -5 1 -9 -5 -9 -17 0 -41 12 -41 20 0 10 38 1 46 -11z m-1703 -39 c8 -30 -3
-60 -22 -60 -10 0 -24 -14 -32 -32 -16 -38 -33 -40 -37 -4 -2 18 4 30 22 42
14 9 26 24 26 33 0 17 18 41 31 41 4 0 9 -9 12 -20z m1647 -1 c0 -5 -4 -9 -10
-9 -5 0 -10 7 -10 16 0 8 5 12 10 9 6 -3 10 -10 10 -16z m-1245 -65 c0 -19 -6
-30 -17 -32 -19 -4 -24 21 -12 53 10 25 29 12 29 -21z m-370 -25 c7 -22 -12
-79 -26 -79 -5 0 -9 23 -9 50 0 37 4 50 14 50 8 0 18 -9 21 -21z m1624 6 c2
-2 1 -11 -3 -20 -9 -25 -50 -15 -54 14 -3 21 -1 23 25 16 15 -3 30 -8 32 -10z
m157 -19 c14 -11 16 -18 8 -26 -15 -15 -44 -2 -44 21 0 23 9 24 36 5z m-1461
-38 c-4 -18 -12 -42 -18 -53 -10 -18 -11 -17 -18 15 -8 39 4 70 27 70 12 0 14
-7 9 -32z m80 21 c9 -13 -3 -59 -14 -59 -12 0 -18 29 -13 53 5 19 18 22 27 6z
m1143 -107 l-4 -27 -12 27 c-14 33 -5 71 10 44 5 -9 8 -29 6 -44z m42 48 c0
-5 -7 -10 -15 -10 -8 0 -15 5 -15 10 0 6 7 10 15 10 8 0 15 -4 15 -10z m-1594
-56 c14 -33 14 -38 -2 -55 -22 -24 -31 -24 -39 1 -6 19 11 90 21 90 3 0 12
-16 20 -36z m-101 -35 c-4 -11 -12 -18 -18 -16 -17 5 -21 36 -6 53 11 14 13
14 21 -1 5 -8 6 -25 3 -36z m405 -13 c0 -49 -13 -65 -35 -46 -20 16 -19 36 3
65 25 35 32 31 32 -19z m-135 -1 c0 -26 -4 -30 -32 -33 -24 -2 -34 2 -43 18
-16 30 4 52 44 48 27 -3 31 -7 31 -33z m1489 29 c24 -9 19 -21 -9 -26 -19 -4
-25 -1 -25 13 0 20 8 23 34 13z m61 -24 c3 -5 -1 -10 -9 -10 -9 0 -16 5 -16
10 0 6 4 10 9 10 6 0 13 -4 16 -10z m-1325 -19 c0 -26 -10 -51 -21 -51 -10 0
-12 53 -2 63 12 13 23 7 23 -12z m-409 -113 c10 -18 8 -24 -7 -35 -26 -19 -68
-16 -89 7 -25 28 -5 50 46 50 29 0 41 -5 50 -22z m160 -14 c17 -20 1 -48 -31
-52 -30 -5 -44 11 -36 42 7 30 45 36 67 10z m194 -25 c20 -20 20 -20 1 -35
-23 -17 -59 -18 -87 -4 -24 13 -24 28 -2 52 20 23 58 17 88 -13z m1250 -9 c-3
-5 -13 -10 -21 -10 -8 0 -14 5 -14 10 0 6 9 10 21 10 11 0 17 -4 14 -10z
m-1890 -153 c-8 -89 -19 -103 -41 -52 -14 34 -14 47 -4 92 12 47 15 51 33 42
18 -10 19 -18 12 -82z m1651 22 c4 -8 9 -8 17 0 18 18 45 13 52 -10 4 -12 12
-18 21 -15 10 4 14 -4 14 -31 0 -29 -2 -33 -14 -24 -10 8 -16 9 -21 1 -9 -15
-25 -12 -25 5 0 24 -18 17 -34 -14 -16 -30 -34 -41 -67 -41 -24 0 -25 24 -3
76 25 61 44 78 60 53z m179 -59 c3 -5 2 -10 -4 -10 -5 0 -13 5 -16 10 -3 6 -2
10 4 10 5 0 13 -4 16 -10z m-205 -400 c0 -20 -25 -38 -37 -26 -5 5 24 46 34
46 1 0 3 -9 3 -20z m240 0 c0 -11 -4 -20 -10 -20 -5 0 -10 9 -10 20 0 11 5 20
10 20 6 0 10 -9 10 -20z m-95 0 c3 -6 -1 -7 -9 -4 -18 7 -21 14 -7 14 6 0 13
-4 16 -10z m175 -158 c0 -15 -28 -47 -35 -40 -8 8 13 48 25 48 6 0 10 -4 10
-8z m-275 -452 c3 -5 1 -10 -4 -10 -6 0 -11 5 -11 10 0 6 2 10 4 10 3 0 8 -4
11 -10z m45 -20 c0 -5 -2 -10 -4 -10 -3 0 -8 5 -11 10 -3 6 -1 10 4 10 6 0 11
-4 11 -10z"/>
<path d="M430 4368 c0 -22 17 -42 24 -29 4 6 0 18 -8 27 -12 12 -16 12 -16 2z"/>
<path d="M5194 3669 c-3 -5 -3 -13 1 -18 3 -6 -4 -15 -16 -21 -11 -7 -19 -14
-16 -17 5 -4 87 43 87 51 0 8 -51 13 -56 5z"/>
<path d="M5021 3653 c-11 -12 -11 -21 5 -54 22 -51 28 -54 61 -32 15 9 29 17
30 18 1 0 -3 19 -8 42 -10 37 -14 41 -42 41 -18 0 -38 -7 -46 -15z"/>
<path d="M2100 1483 c0 -27 12 -39 44 -47 23 -6 27 -9 15 -17 -7 -5 -24 -9
-36 -9 -13 0 -24 -6 -24 -12 -6 -68 -4 -176 4 -186 7 -8 6 -20 -2 -35 -6 -12
-12 -51 -14 -87 l-2 -65 40 0 c22 0 64 4 93 8 51 8 52 7 52 -17 0 -28 -25 -46
-64 -46 -13 0 -31 -7 -40 -15 -20 -20 -52 -19 -61 3 -6 13 -10 8 -16 -21 -6
-23 -5 -46 1 -57 7 -13 6 -19 -5 -24 -10 -3 -15 -19 -15 -45 0 -31 5 -42 26
-55 24 -17 26 -16 45 8 33 42 94 31 87 -15 -2 -19 -10 -25 -38 -27 -19 -2 -39
-8 -45 -13 -5 -5 -24 -9 -42 -9 -25 0 -33 -4 -33 -18 0 -11 8 -26 18 -35 15
-13 21 -14 31 -4 10 9 10 7 3 -13 -6 -14 -15 -24 -21 -23 -16 4 -38 -37 -45
-86 -6 -37 -19 -58 -86 -131 -59 -65 -84 -101 -96 -139 -17 -50 -17 -51 7 -71
30 -25 164 -95 202 -104 53 -13 26 10 -54 44 -45 19 -86 42 -93 52 -6 10 -18
18 -27 18 -31 0 -42 26 -24 54 10 14 20 26 24 26 9 0 48 -61 56 -88 9 -31 158
-101 202 -95 26 4 32 11 46 56 8 29 18 70 21 92 12 72 30 135 39 135 5 0 7
-42 5 -93 -3 -85 -6 -97 -32 -131 -53 -70 -18 -48 47 30 75 89 99 149 69 173
-15 12 -15 12 6 6 12 -3 22 -3 22 2 -1 21 -43 57 -120 103 -83 49 -97 69 -20
30 47 -24 63 -26 32 -4 -30 21 -28 36 3 24 19 -7 23 -6 19 5 -3 8 -15 17 -26
21 -20 6 -21 11 -14 105 4 70 3 99 -5 99 -12 0 -10 20 11 100 6 25 12 81 14
125 1 44 4 85 5 90 2 6 3 23 2 38 -1 26 -3 27 -23 15 -13 -6 -33 -11 -46 -9
-12 1 -39 -3 -59 -10 -32 -10 -38 -9 -49 6 -25 34 -7 44 89 47 l91 3 7 29 c5
17 4 37 -2 49 -8 13 -8 22 0 30 6 6 11 24 11 40 0 29 0 30 -46 23 -34 -4 -45
-3 -42 7 3 6 14 13 26 15 12 2 22 7 22 12 0 5 8 10 18 12 12 3 0 16 -45 48
-54 39 -111 77 -135 88 -5 2 -8 -5 -8 -15z m100 -932 c0 -5 -7 -12 -16 -15 -8
-3 -12 -10 -9 -16 8 -13 -11 -13 -36 0 -34 19 -23 40 21 40 22 0 40 -4 40 -9z
m-72 -98 c2 -12 -1 -30 -6 -39 -8 -15 -12 -13 -26 14 -22 42 -20 54 7 50 14
-2 23 -11 25 -25z m-122 -155 c18 -35 14 -44 -14 -27 -21 13 -35 46 -26 61 8
12 22 0 40 -34z m128 -24 c10 -25 -1 -29 -14 -5 -6 12 -7 21 -1 21 5 0 12 -7
15 -16z m-20 -121 c39 -54 39 -58 11 -47 -17 7 -85 107 -85 126 0 16 27 -13
74 -79z"/>
<path d="M1995 488 c-37 -13 -55 -27 -55 -43 0 -10 9 -11 52 -6 10 1 51 61 41
60 -4 0 -21 -5 -38 -11z"/>
<path d="M1929 383 c-13 -16 -12 -17 4 -4 16 13 21 21 13 21 -2 0 -10 -8 -17
-17z"/>
<path d="M2341 211 c-29 -32 -59 -68 -67 -80 -14 -19 -14 -21 4 -21 11 0 25 7
32 15 7 8 17 12 23 8 5 -3 7 -1 4 4 -4 6 9 34 28 63 31 46 42 70 32 70 -2 0
-27 -26 -56 -59z"/>
<path d="M2030 70 c0 -5 7 -10 16 -10 8 0 12 5 9 10 -3 6 -10 10 -16 10 -5 0
-9 -4 -9 -10z"/>
</g>
</svg>
